<?xml version="1.0" encoding="utf-8" ?><svg xmlns="http://www.w3.org/2000/svg" xmlns:xlink="http://www.w3.org/1999/xlink" width="1015" height="1015" viewBox="0 0 1015 1015"><path fill="#FE6132" d="M963.177 25.5725C978.06 23.6662 994.75 31.3518 996.25 48.0621C997.246 59.1546 994.203 76.2861 992.945 87.9144L983.807 170.836L969.761 299.166C968.289 312.616 966.828 326.087 965.162 339.471C963.736 350.927 965.461 361.035 957.317 370.436C952.279 376.551 947.544 379.82 939.42 380.556C927.114 381.671 921.544 375.231 913.674 367.497C907.619 361.548 901.081 354.171 894.551 348.706L893.964 348.22C884.077 357.815 874.219 368.222 864.325 377.942L820.878 420.663C817.616 423.889 808.275 431.633 806.406 435.328C803.955 440.174 805.246 511.665 805.251 521.853L805.215 832.869L805.222 923.741L805.246 950.426C805.277 962.241 806.438 971.484 797.921 981.039C792.814 987.114 786.928 989.009 779.195 989.271C768.755 989.626 758.132 989.439 747.639 989.422L689.569 989.345L509.53 989.295L320.658 989.28C296.575 989.296 272.384 989.719 248.329 989.344C236.092 988.433 225.142 992.645 215.217 983.436C198.705 968.114 205.474 948.35 221.119 936.084C222.865 934.715 226.134 931.116 227.871 929.379C240.815 916.465 253.867 903.66 267.026 890.965L373.392 787.394L722.088 445.194L823.898 345.505C840.253 329.357 857.372 313.914 872.845 296.837C878.649 290.432 885.704 286.093 894.62 285.913C904.964 285.704 912.441 292.904 919.429 299.634C920.58 273.912 924.481 246.882 927.518 221.287L937.588 131.469C937.989 129.501 938.212 126.169 938.362 124.105C939.455 109.046 942.159 93.8914 943.175 78.8734C939.149 79.1934 934.167 79.0434 929.995 79.221L892.237 81.0278L767.319 88.8497L726.76 91.0927C720.477 91.4988 713.777 91.7202 707.59 92.6653C710.404 96.7093 714.735 100.112 718.015 104.003C727.101 114.781 726.208 130.51 716.987 140.952C708.092 151.025 697.889 160.194 688.11 169.6L648.416 208.488L522.372 332.349L238.436 610.387L144.167 703.247C119.919 726.876 94.8839 749.803 71.2227 774.023C63.5609 781.866 55.7166 788.537 44.0797 788.341C38.1708 788.242 30.2998 783.011 26.4118 778.757C22.0468 773.981 20.62 769.192 20.2062 762.91C19.4919 752.069 19.9115 741.01 19.9152 730.139L20.0591 671.449L20.0384 506.093L19.9992 249.285L19.9587 176.102C19.9187 161.245 19.9095 146.482 20.1018 131.585C19.739 115.89 29.4568 103.414 45.9723 102.92C56.6776 102.6 67.8665 102.744 78.7863 102.751L140.188 102.781L329.614 102.782L546.917 102.78L611.515 102.757C623.029 102.747 636.786 102.386 648.139 102.935C639.269 95.1148 628.038 84.2951 627.486 71.9714C627.109 64.6275 629.687 57.4381 634.646 52.0079C638.297 48.0497 642.501 44.9338 647.912 44.204C660.035 42.5689 672.924 42.6455 685.172 41.9655L755.304 37.6203L858.104 31.8726C893.081 29.7199 928.124 27.1602 963.177 25.5725ZM70.8689 703.19C86.3097 687.002 101.394 672.504 117.302 656.891L181.427 594.17L351.745 427.632C414.775 364.875 478.324 302.641 542.385 240.936L600.544 183.958L619.686 165.077C622.841 161.967 627.114 158.102 629.945 154.832C618.279 155.048 606.731 154.736 595.064 154.775C559.183 155.12 523.3 155.138 487.419 154.83L226.477 155.048L125.146 155.035C107.875 154.993 87.7903 154.307 70.795 154.776C70.4625 177.563 71.0238 198.968 71.1142 221.454L71.1896 311.205L70.8689 703.19ZM298.476 936.877L631.889 936.851C672.272 936.828 714.382 937.531 754.651 936.759C754.939 901.588 754.992 866.415 754.81 831.243L754.824 684.175L754.873 575.504C755.004 546.805 755.041 518.108 754.743 489.41C754.733 488.423 754.647 487.774 753.882 487.122C750.78 488.987 744.529 495.72 741.59 498.592L713.782 525.971L611.113 626.948L346.88 885.631L309.964 921.552C306.989 924.397 296.74 933.319 294.974 936.31C296.013 936.912 297.323 937.09 298.476 936.877Z"/></svg>